<?xml version="1.0" encoding="utf-8"?>
<?xml-stylesheet type="text/xsl" href="rss1.xsl"?>
<rss version="2.0" xmlns:atom="http://www.w3.org/2005/Atom" xmlns:content="http://purl.org/rss/1.0/modules/content/" xmlns:dc="http://purl.org/dc/elements/1.1/" xmlns:media="http://search.yahoo.com/mrss/">
<channel>
 <title>Getty</title>
 <link>http://www.gettyimg.com/</link>
 <atom:link href="http://www.gettyimg.com/" rel="self" type="application/rss+xml" />

 
                <item>
                <title><![CDATA[【HD Live Performances】WEB-RiP - A.Very.Demi.Holiday.Special.2023.1080p.ROKU.WEB-DL.DD5.1.H.264-FLUX]]></title>
                <link><![CDATA[https://sharemania.us/threads/a-very-demi-holiday-special-2023-1080p-roku-web-dl-dd5-1-h-264-flux.233676/]]></link>
                <description><![CDATA[<article>
<blockquote class="messageText SelectQuoteContainer ugc baseHtml">
<div style="text-align: center"><span style="font-size: 15px"><img src="https://i.imgur.com/vp20Kpn.jpg" class="bbCodeImage LbImage" alt="[​IMG]" data-url="https://i.imgur.com/vp20Kpn.jpg" style=""> </span><br>
<span style="font-family: 'Times New Roman'"><span style="font-size: 15px"><br>
<br>
</span></span>​</div>
<div class="ToggleTriggerAnchor bbCodeSpoilerContainer">
<button type="button" class="button bbCodeSpoilerButton ToggleTrigger Tooltip JsOnly" data-target="> .SpoilerTarget"><span>Spoiler: <span class="SpoilerTitle">MediaInfo</span></span></button>
<div class="SpoilerTarget bbCodeSpoilerText"><span style="font-family: 'Times New Roman'"><span style="font-size: 15px">General<br>
Unique ID : 331828009501361633096545988950873951885 (0xF9A3BFFF3F3433FB13765D3F6C414E8D)<br>
Complete name : D:\A.Very.Demi.Holiday.Special.2023.1080p.ROKU.WEB-DL.DD5.1.H.264-FLUX.mkv<br>
Format : Matroska<br>
Format version : Version 4<br>
File size : 1.58 GiB<br>
Duration : 52 min 46 s<br>
Overall bit rate mode : Variable<br>
Overall bit rate : 4 280 kb/s<br>
Writing application : mkvmerge v79.0 ('Funeral Pyres') 64-bit<br>
Writing library : libebml v1.4.4 + libmatroska v1.7.1<br>
<br>
Video<br>
ID : 1<br>
Format : AVC<br>
Format/Info : Advanced Video Codec<br>
Format profile : High@L4<br>
Format settings : CABAC / 3 Ref Frames<br>
Format settings, CABAC : Yes<br>
Format settings, Reference frames : 3 frames<br>
Codec ID : V_MPEG4/ISO/AVC<br>
Duration : 52 min 46 s<br>
Bit rate mode : Variable<br>
Bit rate : 3 811 kb/s<br>
Maximum bit rate : 4 172 kb/s<br>
Width : 1 920 pixels<br>
Height : 1 080 pixels<br>
Display aspect ratio : 16:9<br>
Frame rate mode : Constant<br>
Frame rate : 23.976 (24000/1001) FPS<br>
Color space : YUV<br>
Chroma subsampling : 4:2:0<br>
Bit depth : 8 bits<br>
Scan type : Progressive<br>
Bits/(Pixel*Frame) : 0.077<br>
Stream size : 1.40 GiB (89%)<br>
Language : English (US)<br>
Default : Yes<br>
Forced : No<br>
Color range : Limited<br>
Color primaries : BT.709<br>
Transfer characteristics : BT.709<br>
Matrix coefficients : BT.709<br>
<br>
Audio<br>
ID : 2<br>
Format : AC-3<br>
Format/Info : Audio Coding 3<br>
Commercial name : Dolby Digital<br>
Codec ID : A_AC3<br>
Duration : 52 min 46 s<br>
Bit rate mode : Constant<br>
Bit rate : 384 kb/s<br>
Channel(s) : 6 channels<br>
Channel layout : L R C LFE Ls Rs<br>
Sampling rate : 48.0 kHz<br>
Frame rate : 31.250 FPS (1536 SPF)<br>
Compression mode : Lossy<br>
Stream size : 145 MiB (9%)<br>
Language : English (US)<br>
Service kind : Complete Main<br>
Default : Yes<br>
Forced : No<br>
<br>
Text #1<br>
ID : 3<br>
Format : UTF-8<br>
Codec ID : S_TEXT/UTF8<br>
Codec ID/Info : UTF-8 Plain Text<br>
Language : English (US)<br>
Default : No<br>
Forced : No<br>
<br>
Text #2<br>
ID : 4<br>
Format : UTF-8<br>
Codec ID : S_TEXT/UTF8<br>
Codec ID/Info : UTF-8 Plain Text<br>
Title : SDH<br>
Language : English (US)<br>
Default : No<br>
Forced : No<br>
<br>
Text #3<br>
ID : 5<br>
Format : UTF-8<br>
Codec ID : S_TEXT/UTF8<br>
Codec ID/Info : UTF-8 Plain Text<br>
Title : Mexican<br>
Language : Spanish (MX)<br>
Default : No<br>
Forced : No<br>
<br>
Menu<br>
00:00:00.000 : en:Chapter 01<br>
00:09:15.588 : en:Chapter 02<br>
00:19:33.812 : en:Chapter 03<br>
00:26:20.609 : en:Chapter 04<br>
00:34:30.350 : en:Chapter 05<br>
00:45:57.214 : en:Chapter 06<br>
00:52:10.139 : en:Credits<br>
<br>
<br>
</span></span></div>
</div><br>
<div style="text-align: center"><span style="font-family: 'Times New Roman'"><span style="font-size: 15px"><br>
<div class="bbCodeBlock bbCodeVfcHH HiddenContent">
<div class="attribution type">Hidden Content:</div>
<blockquote>You must either reply or click 'Like' to see the hidden information contained here.</blockquote>
</div></span></span><br>
<span style="font-size: 15px"><span style="font-family: 'Times New Roman'">Ripper: FLUX</span></span>​</div>
<div class="messageTextEndMarker">&nbsp;</div>
</blockquote>
</article>]]></description>
                <author><![CDATA[mariellisaa]]></author>
                </item>

                </channel></rss>